<mxfile host="app.diagrams.net" agent="Mozilla/5.0 (Windows NT 10.0; Win64; x64) AppleWebKit/537.36 (KHTML, like Gecko) Chrome/140.0.0.0 Safari/537.36" version="28.2.3">
  <diagram name="Page-1" id="uUFxI547yj3_E6zT6Mlm">
    <mxGraphModel dx="646" dy="333" grid="1" gridSize="10" guides="1" tooltips="1" connect="1" arrows="1" fold="1" page="1" pageScale="1" pageWidth="1400" pageHeight="850" math="0" shadow="0">
      <root>
        <mxCell id="0" />
        <mxCell id="1" parent="0" />
        <mxCell id="gqXW79Z5iP5RrtV90MI_-23" value="TRAVEL" style="shape=associativeEntity;whiteSpace=wrap;html=1;align=center;" parent="1" vertex="1">
          <mxGeometry x="190" y="260" width="100" height="40" as="geometry" />
        </mxCell>
        <mxCell id="gqXW79Z5iP5RrtV90MI_-1" value="USERS" style="whiteSpace=wrap;html=1;align=center;" parent="1" vertex="1">
          <mxGeometry x="190" y="120" width="100" height="40" as="geometry" />
        </mxCell>
        <mxCell id="gqXW79Z5iP5RrtV90MI_-2" value="ROUTES" style="whiteSpace=wrap;html=1;align=center;" parent="1" vertex="1">
          <mxGeometry x="190" y="390" width="100" height="40" as="geometry" />
        </mxCell>
        <mxCell id="gqXW79Z5iP5RrtV90MI_-3" value="WEATHER" style="whiteSpace=wrap;html=1;align=center;" parent="1" vertex="1">
          <mxGeometry x="150" y="550" width="100" height="40" as="geometry" />
        </mxCell>
        <mxCell id="gqXW79Z5iP5RrtV90MI_-4" value="PUBLIC TRANSPORT" style="whiteSpace=wrap;html=1;align=center;" parent="1" vertex="1">
          <mxGeometry x="320" y="560" width="100" height="40" as="geometry" />
        </mxCell>
        <mxCell id="gqXW79Z5iP5RrtV90MI_-5" value="PREDICTIONS" style="whiteSpace=wrap;html=1;align=center;" parent="1" vertex="1">
          <mxGeometry x="215" y="630" width="100" height="40" as="geometry" />
        </mxCell>
        <mxCell id="gqXW79Z5iP5RrtV90MI_-6" value="REMINDERS" style="whiteSpace=wrap;html=1;align=center;" parent="1" vertex="1">
          <mxGeometry x="230" y="740" width="100" height="40" as="geometry" />
        </mxCell>
        <mxCell id="gqXW79Z5iP5RrtV90MI_-7" value="NOTIFICATIONS" style="whiteSpace=wrap;html=1;align=center;" parent="1" vertex="1">
          <mxGeometry x="340" y="680" width="100" height="40" as="geometry" />
        </mxCell>
        <mxCell id="gqXW79Z5iP5RrtV90MI_-9" value="makes" style="shape=rhombus;perimeter=rhombusPerimeter;whiteSpace=wrap;html=1;align=center;" parent="1" vertex="1">
          <mxGeometry x="190" y="190" width="100" height="40" as="geometry" />
        </mxCell>
        <mxCell id="gqXW79Z5iP5RrtV90MI_-11" value="has" style="shape=rhombus;perimeter=rhombusPerimeter;whiteSpace=wrap;html=1;align=center;" parent="1" vertex="1">
          <mxGeometry x="190" y="330" width="100" height="40" as="geometry" />
        </mxCell>
        <mxCell id="gqXW79Z5iP5RrtV90MI_-12" value="affected by" style="shape=rhombus;perimeter=rhombusPerimeter;whiteSpace=wrap;html=1;align=center;" parent="1" vertex="1">
          <mxGeometry x="1220" y="250" width="100" height="60" as="geometry" />
        </mxCell>
        <mxCell id="gqXW79Z5iP5RrtV90MI_-13" value="influences" style="shape=rhombus;perimeter=rhombusPerimeter;whiteSpace=wrap;html=1;align=center;" parent="1" vertex="1">
          <mxGeometry x="1130" y="310" width="100" height="60" as="geometry" />
        </mxCell>
        <mxCell id="gqXW79Z5iP5RrtV90MI_-14" value="takes" style="shape=rhombus;perimeter=rhombusPerimeter;whiteSpace=wrap;html=1;align=center;" parent="1" vertex="1">
          <mxGeometry x="1040" y="220" width="100" height="60" as="geometry" />
        </mxCell>
        <mxCell id="gqXW79Z5iP5RrtV90MI_-15" value="used in" style="shape=rhombus;perimeter=rhombusPerimeter;whiteSpace=wrap;html=1;align=center;" parent="1" vertex="1">
          <mxGeometry x="1030" y="100" width="100" height="60" as="geometry" />
        </mxCell>
        <mxCell id="gqXW79Z5iP5RrtV90MI_-16" value="receives" style="shape=rhombus;perimeter=rhombusPerimeter;whiteSpace=wrap;html=1;align=center;" parent="1" vertex="1">
          <mxGeometry x="1140" y="170" width="100" height="60" as="geometry" />
        </mxCell>
        <mxCell id="gqXW79Z5iP5RrtV90MI_-17" value="predicted for" style="shape=rhombus;perimeter=rhombusPerimeter;whiteSpace=wrap;html=1;align=center;" parent="1" vertex="1">
          <mxGeometry x="1140" y="40" width="100" height="60" as="geometry" />
        </mxCell>
        <mxCell id="gqXW79Z5iP5RrtV90MI_-18" value="based on" style="shape=rhombus;perimeter=rhombusPerimeter;whiteSpace=wrap;html=1;align=center;" parent="1" vertex="1">
          <mxGeometry x="1070" y="180" width="100" height="60" as="geometry" />
        </mxCell>
        <mxCell id="gqXW79Z5iP5RrtV90MI_-19" value="sets" style="shape=rhombus;perimeter=rhombusPerimeter;whiteSpace=wrap;html=1;align=center;" parent="1" vertex="1">
          <mxGeometry x="1160" y="340" width="100" height="60" as="geometry" />
        </mxCell>
        <mxCell id="gqXW79Z5iP5RrtV90MI_-20" value="gets" style="shape=rhombus;perimeter=rhombusPerimeter;whiteSpace=wrap;html=1;align=center;" parent="1" vertex="1">
          <mxGeometry x="1000" y="305" width="100" height="60" as="geometry" />
        </mxCell>
        <mxCell id="gqXW79Z5iP5RrtV90MI_-25" value="AFFECT" style="shape=associativeEntity;whiteSpace=wrap;html=1;align=center;" parent="1" vertex="1">
          <mxGeometry x="710" y="440" width="140" height="60" as="geometry" />
        </mxCell>
        <mxCell id="gqXW79Z5iP5RrtV90MI_-26" value="RIDE" style="shape=associativeEntity;whiteSpace=wrap;html=1;align=center;" parent="1" vertex="1">
          <mxGeometry x="550" y="510" width="140" height="60" as="geometry" />
        </mxCell>
        <mxCell id="gqXW79Z5iP5RrtV90MI_-27" value="&lt;u&gt;user_id&lt;/u&gt;" style="ellipse;whiteSpace=wrap;html=1;align=center;" parent="1" vertex="1">
          <mxGeometry x="130" y="40" width="100" height="40" as="geometry" />
        </mxCell>
        <mxCell id="gqXW79Z5iP5RrtV90MI_-28" value="full_name" style="ellipse;whiteSpace=wrap;html=1;align=center;" parent="1" vertex="1">
          <mxGeometry x="260" y="40" width="100" height="40" as="geometry" />
        </mxCell>
        <mxCell id="gqXW79Z5iP5RrtV90MI_-29" value="email" style="ellipse;whiteSpace=wrap;html=1;align=center;" parent="1" vertex="1">
          <mxGeometry x="320" y="80" width="100" height="40" as="geometry" />
        </mxCell>
        <mxCell id="gqXW79Z5iP5RrtV90MI_-30" value="user_type" style="ellipse;whiteSpace=wrap;html=1;align=center;" parent="1" vertex="1">
          <mxGeometry x="60" y="80" width="100" height="40" as="geometry" />
        </mxCell>
        <mxCell id="gqXW79Z5iP5RrtV90MI_-31" value="" style="endArrow=none;html=1;rounded=0;exitX=0.5;exitY=1;exitDx=0;exitDy=0;entryX=0;entryY=0.5;entryDx=0;entryDy=0;" parent="1" source="gqXW79Z5iP5RrtV90MI_-30" target="gqXW79Z5iP5RrtV90MI_-1" edge="1">
          <mxGeometry relative="1" as="geometry">
            <mxPoint x="100" y="160" as="sourcePoint" />
            <mxPoint x="260" y="160" as="targetPoint" />
          </mxGeometry>
        </mxCell>
        <mxCell id="gqXW79Z5iP5RrtV90MI_-32" value="" style="endArrow=none;html=1;rounded=0;exitX=0.5;exitY=1;exitDx=0;exitDy=0;entryX=0.25;entryY=0;entryDx=0;entryDy=0;" parent="1" source="gqXW79Z5iP5RrtV90MI_-27" target="gqXW79Z5iP5RrtV90MI_-1" edge="1">
          <mxGeometry relative="1" as="geometry">
            <mxPoint x="212.5" y="80" as="sourcePoint" />
            <mxPoint x="287.5" y="100" as="targetPoint" />
          </mxGeometry>
        </mxCell>
        <mxCell id="gqXW79Z5iP5RrtV90MI_-33" value="" style="endArrow=none;html=1;rounded=0;exitX=0.5;exitY=1;exitDx=0;exitDy=0;entryX=0.75;entryY=0;entryDx=0;entryDy=0;" parent="1" source="gqXW79Z5iP5RrtV90MI_-28" target="gqXW79Z5iP5RrtV90MI_-1" edge="1">
          <mxGeometry relative="1" as="geometry">
            <mxPoint x="240" y="90" as="sourcePoint" />
            <mxPoint x="300" y="150" as="targetPoint" />
          </mxGeometry>
        </mxCell>
        <mxCell id="gqXW79Z5iP5RrtV90MI_-35" value="" style="endArrow=none;html=1;rounded=0;exitX=0.5;exitY=1;exitDx=0;exitDy=0;entryX=1;entryY=0.5;entryDx=0;entryDy=0;" parent="1" source="gqXW79Z5iP5RrtV90MI_-29" target="gqXW79Z5iP5RrtV90MI_-1" edge="1">
          <mxGeometry relative="1" as="geometry">
            <mxPoint x="310" y="100" as="sourcePoint" />
            <mxPoint x="345" y="160" as="targetPoint" />
          </mxGeometry>
        </mxCell>
        <mxCell id="gqXW79Z5iP5RrtV90MI_-37" value="" style="fontSize=12;html=1;endArrow=none;endFill=0;rounded=0;exitX=0.5;exitY=1;exitDx=0;exitDy=0;entryX=0.5;entryY=0;entryDx=0;entryDy=0;startArrow=ERone;startFill=0;" parent="1" source="gqXW79Z5iP5RrtV90MI_-1" target="gqXW79Z5iP5RrtV90MI_-9" edge="1">
          <mxGeometry width="100" height="100" relative="1" as="geometry">
            <mxPoint x="300" y="270" as="sourcePoint" />
            <mxPoint x="400" y="170" as="targetPoint" />
          </mxGeometry>
        </mxCell>
        <mxCell id="gqXW79Z5iP5RrtV90MI_-38" value="" style="fontSize=12;html=1;endArrow=none;endFill=0;rounded=0;exitX=0.5;exitY=1;exitDx=0;exitDy=0;startArrow=ERzeroToMany;startFill=0;entryX=0.5;entryY=0;entryDx=0;entryDy=0;" parent="1" source="gqXW79Z5iP5RrtV90MI_-23" target="gqXW79Z5iP5RrtV90MI_-11" edge="1">
          <mxGeometry width="100" height="100" relative="1" as="geometry">
            <mxPoint x="244.70999999999998" y="380" as="sourcePoint" />
            <mxPoint x="245" y="390" as="targetPoint" />
          </mxGeometry>
        </mxCell>
        <mxCell id="gqXW79Z5iP5RrtV90MI_-40" value="" style="fontSize=12;html=1;endArrow=ERone;endFill=0;rounded=0;exitX=0.5;exitY=1;exitDx=0;exitDy=0;startArrow=none;startFill=0;entryX=0.5;entryY=0;entryDx=0;entryDy=0;" parent="1" source="gqXW79Z5iP5RrtV90MI_-11" target="gqXW79Z5iP5RrtV90MI_-2" edge="1">
          <mxGeometry width="100" height="100" relative="1" as="geometry">
            <mxPoint x="314.77" y="435" as="sourcePoint" />
            <mxPoint x="314.77" y="485" as="targetPoint" />
          </mxGeometry>
        </mxCell>
        <mxCell id="gqXW79Z5iP5RrtV90MI_-41" value="" style="fontSize=12;html=1;endArrow=ERzeroToMany;endFill=1;rounded=0;exitX=0.5;exitY=1;exitDx=0;exitDy=0;entryX=0.5;entryY=0;entryDx=0;entryDy=0;startArrow=none;startFill=0;" parent="1" source="gqXW79Z5iP5RrtV90MI_-9" target="gqXW79Z5iP5RrtV90MI_-23" edge="1">
          <mxGeometry width="100" height="100" relative="1" as="geometry">
            <mxPoint x="420" y="200" as="sourcePoint" />
            <mxPoint x="425" y="360" as="targetPoint" />
          </mxGeometry>
        </mxCell>
        <mxCell id="F4M-uVeP_yfNJimxveKJ-1" value="user_id" style="ellipse;whiteSpace=wrap;html=1;align=center;" vertex="1" parent="1">
          <mxGeometry x="70" y="220" width="100" height="40" as="geometry" />
        </mxCell>
        <mxCell id="F4M-uVeP_yfNJimxveKJ-2" value="route_id" style="ellipse;whiteSpace=wrap;html=1;align=center;" vertex="1" parent="1">
          <mxGeometry x="70" y="290" width="100" height="40" as="geometry" />
        </mxCell>
        <mxCell id="F4M-uVeP_yfNJimxveKJ-3" value="route_id" style="ellipse;whiteSpace=wrap;html=1;align=center;" vertex="1" parent="1">
          <mxGeometry x="320" y="260" width="100" height="40" as="geometry" />
        </mxCell>
        <mxCell id="F4M-uVeP_yfNJimxveKJ-4" value="" style="endArrow=none;html=1;rounded=0;exitX=0.5;exitY=1;exitDx=0;exitDy=0;entryX=0;entryY=0.5;entryDx=0;entryDy=0;" edge="1" parent="1" source="F4M-uVeP_yfNJimxveKJ-1" target="gqXW79Z5iP5RrtV90MI_-23">
          <mxGeometry relative="1" as="geometry">
            <mxPoint x="110" y="280" as="sourcePoint" />
            <mxPoint x="190" y="300" as="targetPoint" />
          </mxGeometry>
        </mxCell>
        <mxCell id="F4M-uVeP_yfNJimxveKJ-5" value="" style="endArrow=none;html=1;rounded=0;exitX=0.5;exitY=0;exitDx=0;exitDy=0;entryX=0;entryY=0.5;entryDx=0;entryDy=0;" edge="1" parent="1" source="F4M-uVeP_yfNJimxveKJ-2" target="gqXW79Z5iP5RrtV90MI_-23">
          <mxGeometry relative="1" as="geometry">
            <mxPoint x="150" y="260" as="sourcePoint" />
            <mxPoint x="220" y="270" as="targetPoint" />
          </mxGeometry>
        </mxCell>
        <mxCell id="F4M-uVeP_yfNJimxveKJ-6" value="" style="endArrow=none;html=1;rounded=0;exitX=1;exitY=0.5;exitDx=0;exitDy=0;entryX=0;entryY=0.5;entryDx=0;entryDy=0;" edge="1" parent="1" source="gqXW79Z5iP5RrtV90MI_-23" target="F4M-uVeP_yfNJimxveKJ-3">
          <mxGeometry relative="1" as="geometry">
            <mxPoint x="320" y="320" as="sourcePoint" />
            <mxPoint x="390" y="310" as="targetPoint" />
          </mxGeometry>
        </mxCell>
        <mxCell id="F4M-uVeP_yfNJimxveKJ-7" value="route_id" style="ellipse;whiteSpace=wrap;html=1;align=center;" vertex="1" parent="1">
          <mxGeometry x="70" y="340" width="100" height="40" as="geometry" />
        </mxCell>
        <mxCell id="F4M-uVeP_yfNJimxveKJ-8" value="route_id" style="ellipse;whiteSpace=wrap;html=1;align=center;" vertex="1" parent="1">
          <mxGeometry x="70" y="390" width="100" height="40" as="geometry" />
        </mxCell>
      </root>
    </mxGraphModel>
  </diagram>
</mxfile>
